FILE "silence.wav" WAVE
TRACK 01 AUDIO
  INDEX 01 00:00:00
FILE "silence.wav" WAVE
TRACK 02 AUDIO
  INDEX 01 00:00:00
FILE "silence.wav" WAVE
TRACK 03 AUDIO
  INDEX 01 00:00:00
FILE "silence.wav" WAVE
TRACK 04 AUDIO
  INDEX 01 00:00:00
FILE "silence.wav" WAVE
TRACK 05 AUDIO
  INDEX 01 00:00:00
